Coordinates
version=1
nRows=4
nColumns=63
inDegrees=yes

Units are S.I. units (second, meters, Newtons, ...)
If the header above contains a line with 'inDegrees', this indicates whether rotational values are in degrees (yes) or radians (no).

endheader
time	pelvis_tilt	pelvis_list	pelvis_rotation	pelvis_tx	pelvis_ty	pelvis_tz	hip_flexion_r	hip_adduction_r	hip_rotation_r	knee_angle_r	knee_angle_r_beta	ankle_angle_r	subtalar_angle_r	mtp_angle_r	hip_flexion_l	hip_adduction_l	hip_rotation_l	knee_angle_l	knee_angle_l_beta	ankle_angle_l	subtalar_angle_l	mtp_angle_l	L5_S1_Flex_Ext	L5_S1_Lat_Bending	L5_S1_axial_rotation	L4_L5_Flex_Ext	L4_L5_Lat_Bending	L4_L5_axial_rotation	L3_L4_Flex_Ext	L3_L4_Lat_Bending	L3_L4_axial_rotation	L2_L3_Flex_Ext	L2_L3_Lat_Bending	L2_L3_axial_rotation	L1_L2_Flex_Ext	L1_L2_Lat_Bending	L1_L2_axial_rotation	L1_T12_Flex_Ext	L1_T12_Lat_Bending	L1_T12_axial_rotation	Abs_r3	Abs_r2	Abs_r1	Abs_t1	Abs_t2	neck_flexion	neck_bending	neck_rotation	arm_flex_r	arm_add_r	arm_rot_r	elbow_flex_r	pro_sup_r	wrist_flex_r	wrist_dev_r	arm_flex_l	arm_add_l	arm_rot_l	elbow_flex_l	pro_sup_l	wrist_flex_l	wrist_dev_l
      7.50000000	    -50.72986070	     -5.66997084	      3.53849820	     -0.36106336	      1.12145076	      0.03314130	     80.76493330	     -6.96109733	    -11.20934922	     51.13474141	      0.89246960	     -0.85826985	     -2.15001144	      0.00000000	    118.93722498	     -2.14099340	      7.23068558	    110.76587504	      1.93322922	     28.06906604	     16.23901070	      0.00000000	     -0.07981787	      0.56419513	     -0.46898702	     -0.14822976	      0.75037952	     -0.49829871	     -0.13113278	      1.37178404	     -0.49829871	     -0.09122384	      1.37178404	     -0.41036364	     -0.07411887	      1.15050671	     -0.38105195	     -0.04560793	      0.87393826	     -0.35174027	     -0.57013105	      6.38228814	     -2.60836512	      0.00000000	      0.00000000	     -0.00000000	      0.00000000	      0.00000000	     72.62913041	    -15.13313924	     23.42147079	     33.19511116	     29.04455613	      0.00000000	      5.00000014	     72.44937431	     -8.71148192	     20.01911009	     32.97340033	     53.61817737	      0.00000000	      5.00000014
      7.50800000	    -50.79195616	     -5.74181413	      3.19938329	     -0.36129236	      1.12192303	      0.03312813	     81.07444809	     -6.69154607	    -10.82633874	     53.18321591	      0.92822222	     -1.07198207	     -2.40083974	      0.00000000	    119.21621521	     -2.17291762	      7.23561033	    109.21129635	      1.90609670	     28.00657130	     15.81673423	      0.00000000	     -0.08018248	      0.57551484	     -0.40411829	     -0.14890689	      0.76543474	     -0.42937569	     -0.13173180	      1.39930679	     -0.42937569	     -0.09164056	      1.39930679	     -0.35360351	     -0.07445745	      1.17358987	     -0.32834611	     -0.04581627	      0.89147249	     -0.30308872	     -0.57273545	      6.51033899	     -2.24758470	      0.00000000	      0.00000000	     -0.00000000	      0.00000000	      0.00000000	     72.68326187	    -15.14861184	     23.33796400	     33.18195634	     29.06859056	      0.00000000	      5.00000014	     72.43588504	     -8.64283691	     20.04185184	     33.05108503	     53.60113283	      0.00000000	      5.00000014
      7.51700000	    -50.89102387	     -5.39911727	      3.11778363	     -0.36180263	      1.12255137	      0.03310343	     81.73837702	     -6.76546609	     -9.99599750	     55.60891150	      0.97055860	     -2.02521861	     -3.13554776	      0.00000000	    119.17614294	     -2.19648189	      6.71746711	    107.25947097	      1.87203092	     27.92087716	     15.56437349	      0.00000000	     -0.08025460	      0.53217842	     -0.39032391	     -0.14904081	      0.70779730	     -0.41471916	     -0.13185027	      1.29393861	     -0.41471916	     -0.09172298	      1.29393861	     -0.34153342	     -0.07452442	      1.08521823	     -0.31713818	     -0.04585748	      0.82434437	     -0.29274294	     -0.57325055	      6.02010871	     -2.17086451	      0.00000000	      0.00000000	     -0.00000000	      0.00000000	      0.00000000	     72.71112254	    -15.01358334	     23.18658604	     33.06349962	     29.05512500	      0.00000000	      5.00000014	     72.54556331	     -8.65680399	     20.02158363	     33.01767589	     53.59099951	      0.00000000	      5.00000014
      7.52500000	    -50.96800288	     -5.22113403	      2.87637282	     -0.36224369	      1.12298020	      0.03332611	     82.47004368	     -6.64060566	     -9.33600762	     58.20909811	      1.01594042	     -2.75224394	     -3.98739766	      0.00000000	    118.97612344	     -2.33079983	      6.42649640	    105.17927399	      1.83572464	     27.83557793	     15.19275535	      0.00000000	     -0.08138537	      0.51090804	     -0.34453086	     -0.15114077	      0.67950770	     -0.36606403	     -0.13370803	      1.24222181	     -0.36606403	     -0.09301534	      1.24222181	     -0.30146450	     -0.07557446	      1.04184368	     -0.27993132	     -0.04650360	      0.79139656	     -0.25839814	     -0.58132756	      5.77949395	     -1.91617726	      0.00000000	      0.00000000	     -0.00000000	      0.00000000	      0.00000000	     72.74370575	    -14.87627884	     22.89773133	     32.99347361	     29.02045026	      0.00000000	      5.00000014	     72.63296489	     -8.69325299	     20.07735486	     33.02315557	     53.59371928	      0.00000000	      5.00000014
